<svg width="26" height="26" viewBox="0 0 26 26" fill="none" xmlns="http://www.w3.org/2000/svg">
<path d="M14.1043 3.44025C14.1244 1.93082 13.4431 1.18449 13.1 1C12.7569 1.18449 12.0756 1.93082 12.0957 3.44025V7.84277L10.8906 8.62264C10.9771 8.21137 10.9958 8.00776 10.8906 7.7673H10.2127C10.1321 8.18354 10.1642 8.54704 10.2127 9.1761L8.73141 10.1572C8.75651 9.84696 8.7766 9.20126 8.65609 9.10063H8.05352C7.98657 9.36059 7.89284 10.0314 8.05352 10.6352L6.59732 11.6415V10.3333H5.89433C5.83575 10.7442 5.75373 11.6013 5.89433 11.7421L6.12029 11.9686L1.57595 14.7107C1.31652 14.87 0.847854 15.3597 1.04871 16.044L7.77735 13.7296L10.2378 13H12.0204V16.2956C12.0037 16.891 12.0556 18.3786 12.397 19.566L9.28376 22.4088C9.26702 22.1908 9.20844 21.7245 9.10801 21.6038C9.01595 21.7799 8.88707 22.7057 9.10801 25L9.38418 24.2704L12.8991 22.4088V22.9623H13.1H13.3009V22.4088L16.8158 24.2704L17.092 25C17.3129 22.7057 17.184 21.7799 17.092 21.6038C16.9916 21.7245 16.933 22.1908 16.9162 22.4088L13.803 19.566C14.1444 18.3786 14.1963 16.891 14.1796 16.2956V13H15.9622L18.4227 13.7296L25.1513 16.044C25.3521 15.3597 24.8835 14.87 24.624 14.7107L20.0797 11.9686L20.3057 11.7421C20.4463 11.6013 20.3643 10.7442 20.3057 10.3333H19.6027V11.6415L18.1465 10.6352C18.3072 10.0314 18.2134 9.36059 18.1465 9.10063H17.5439C17.4234 9.20126 17.4435 9.84696 17.4686 10.1572L15.9873 9.1761C16.0358 8.54704 16.0679 8.18354 15.9873 7.7673H15.3094C15.2042 8.00776 15.2229 8.21137 15.3094 8.62264L14.1043 7.84277V3.44025Z" fill="#FFD400"/>
<path d="M13.1 1C13.4431 1.18449 14.1244 1.93082 14.1043 3.44025V7.84277L15.3094 8.62264C15.2229 8.21137 15.2042 8.00776 15.3094 7.7673H15.9873C16.0679 8.18354 16.0358 8.54704 15.9873 9.1761L17.4686 10.1572C17.4435 9.84696 17.4234 9.20126 17.5439 9.10063H18.1465C18.2134 9.36059 18.3072 10.0314 18.1465 10.6352L19.6027 11.6415V10.3333H20.3057C20.3643 10.7442 20.4463 11.6013 20.3057 11.7421L20.0797 11.9686L24.624 14.7107C24.8835 14.87 25.3521 15.3597 25.1513 16.044L18.4227 13.7296L15.9622 13H14.1796V16.2956C14.1963 16.891 14.1444 18.3786 13.803 19.566L16.9162 22.4088C16.933 22.1908 16.9916 21.7245 17.092 21.6038C17.184 21.7799 17.3129 22.7057 17.092 25L16.8158 24.2704L13.3009 22.4088V22.9623H13.1M13.1 1C12.7569 1.18449 12.0756 1.93082 12.0957 3.44025V7.84277L10.8906 8.62264C10.9771 8.21137 10.9958 8.00776 10.8906 7.7673H10.2127C10.1321 8.18354 10.1642 8.54704 10.2127 9.1761L8.73141 10.1572C8.75651 9.84696 8.7766 9.20126 8.65609 9.10063H8.05352C7.98657 9.36059 7.89284 10.0314 8.05352 10.6352L6.59732 11.6415V10.3333H5.89433C5.83575 10.7442 5.75373 11.6013 5.89433 11.7421L6.12029 11.9686L1.57595 14.7107C1.31652 14.87 0.847854 15.3597 1.04871 16.044L7.77735 13.7296L10.2378 13H12.0204V16.2956C12.0037 16.891 12.0556 18.3786 12.397 19.566L9.28376 22.4088C9.26702 22.1908 9.20844 21.7245 9.10801 21.6038C9.01595 21.7799 8.88707 22.7057 9.10801 25L9.38419 24.2704L12.8991 22.4088V22.9623H13.1" stroke="black" stroke-opacity="0.3" stroke-width="0.5"/>
</svg>
