<svg width="22" height="26" viewBox="0 0 22 26" fill="none" xmlns="http://www.w3.org/2000/svg">
<path d="M12.4283 4.38824C12.2024 2.43059 11.4871 1.31373 11.1577 1C10.827 1.31373 10.1088 2.43059 9.88206 4.38824V8.85882L7.89777 10.1294V9.84706C8.05525 9.62745 8.32298 8.94353 8.134 7.96471C7.97651 7.87059 7.52926 7.73882 7.00012 7.96471C6.93712 8.26274 6.84893 9.05647 7.00012 9.84706H7.14185L7.23634 10.4588L1.23622 14.0824C1.17323 14.1294 1.0378 14.2612 1 14.4118V15.5412L2.93705 14.8353L3.03154 15.3059L3.22052 14.6941L5.01583 13.9882L5.15756 14.4588L5.34654 13.8941L6.38593 13.5176L6.48042 13.9882L6.6694 13.3294L7.00012 13.1882H8.46471L8.5592 13.7529L8.70094 13.1882H9.88206V17.7059C9.92931 18.5059 10.0899 20.4071 10.3545 21.6118L7.42532 24.0118V25L10.7325 23.7294C10.8112 24.0588 11.0065 24.7741 11.1577 25C11.3083 24.7741 11.5028 24.0588 11.5812 23.7294L14.8753 25V24.0118L11.9577 21.6118C12.2212 20.4071 12.3812 18.5059 12.4283 17.7059V13.1882H13.6047L13.7459 13.7529L13.84 13.1882H15.2989L15.6283 13.3294L15.8165 13.9882L15.9106 13.5176L16.9459 13.8941L17.1341 14.4588L17.2753 13.9882L19.0636 14.6941L19.2518 15.3059L19.3459 14.8353L21.2753 15.5412V14.4118C21.2377 14.2612 21.1028 14.1294 21.04 14.0824L15.0636 10.4588L15.1577 9.84706H15.2989C15.4494 9.05647 15.3616 8.26274 15.2989 7.96471C14.7718 7.73882 14.3263 7.87059 14.1694 7.96471C13.9812 8.94353 14.2479 9.62745 14.4047 9.84706V10.1294L12.4283 8.85882V4.38824Z" fill="#FFD400" stroke="black" stroke-opacity="0.3" stroke-width="0.5"/>
</svg>
