<svg width="24" height="26" viewBox="0 0 24 26" fill="none" xmlns="http://www.w3.org/2000/svg">
<path d="M13.3296 3.69822C13.216 2.1645 12.5959 1.26036 12.3 1C12.0039 1.26036 11.3832 2.1645 11.2695 3.69822L11.1629 9.20118L9.24403 10.4438C9.2914 10.1006 9.35774 9.34319 9.24403 9.05917C9.0782 9.0355 8.67547 9.00237 8.39119 9.05917C8.34382 9.30769 8.27748 9.98225 8.39119 10.6923L8.4978 10.8343L1.24874 15.5562C1.18952 15.6272 1.05686 15.9751 1 16.7988L1.21321 16.4793L4.90881 14.9172L5.51289 14.6331L5.65503 14.9172L5.79717 14.5266L6.82767 14.1716L6.89874 14.4201L7.04088 14.1006L8.07138 13.8166L8.21352 14.1716L8.35566 13.6746L9.35063 13.3905L9.45723 13.7456L9.67044 13.3195L11.1274 13.213L11.1629 18.6805C11.1866 19.2485 11.2979 20.7041 11.5538 21.9822L8.74654 23.8639C8.68732 23.9349 8.56176 24.1195 8.53333 24.2899V24.7515L11.8736 23.7929L12.3 25L12.726 23.7929L16.0633 24.7515V24.2899C16.0349 24.1195 15.9095 23.9349 15.8503 23.8639L13.0456 21.9822C13.3012 20.7041 13.4124 19.2485 13.4361 18.6805L13.4716 13.213L14.9272 13.3195L15.1402 13.7456L15.2467 13.3905L16.2408 13.6746L16.3828 14.1716L16.5249 13.8166L17.5544 14.1006L17.6964 14.4201L17.7675 14.1716L18.797 14.5266L18.9391 14.9172L19.0811 14.6331L19.6846 14.9172L23.3769 16.4793L23.5899 16.7988C23.5331 15.9751 23.4006 15.6272 23.3414 15.5562L16.0988 10.8343L16.2053 10.6923C16.3189 9.98225 16.2527 9.30769 16.2053 9.05917C15.9213 9.00237 15.5189 9.0355 15.3533 9.05917C15.2396 9.34319 15.3059 10.1006 15.3533 10.4438L13.4361 9.20118L13.3296 3.69822Z" fill="#FFD400" stroke="black" stroke-opacity="0.3" stroke-width="0.5"/>
</svg>
