<svg width="20" height="26" viewBox="0 0 20 26" fill="none" xmlns="http://www.w3.org/2000/svg">
<path d="M11.1104 3.58131C10.9138 1.81127 10.4549 1.12292 10.25 1C10.0462 1.12292 9.5398 1.81127 9.34419 3.58131V10.0038L7.84651 11.1408C7.86689 10.7516 7.87708 9.96082 7.75482 9.91165H7.05183C7.02126 9.96287 6.96013 10.096 6.96013 10.219V11.2023C6.9907 11.315 7.07628 11.5526 7.17409 11.6018L4.7289 13.3227C4.75947 12.8924 4.77169 12.032 4.57608 12.032H3.96478C3.92403 12.0423 3.84252 12.0996 3.84252 12.2471V13.3227C3.85271 13.4046 3.90365 13.6054 4.02591 13.7529L1.48904 15.5352C1.45847 15.5864 1.40345 15.7012 1.42791 15.7503L1 16.2113V16.4878L4.2093 15.1972L4.301 15.443L4.36213 15.1972L4.88173 15.0128L4.94286 15.2586L5.06512 14.9513L5.8598 14.6748L5.9515 14.9513L6.04319 14.644L6.83787 14.3675L6.96013 14.5826L7.02126 14.306L7.54086 14.0909H7.84651L7.93821 14.3675L8.0299 14.0294L9.19136 13.968C9.19136 14.1012 9.2097 14.3736 9.28306 14.3982V19.315C9.29325 19.5198 9.39309 20.4458 9.71096 22.5109L7.54086 24.1703C7.48992 24.2113 7.38193 24.3547 7.35747 24.6005V25L9.92492 24.1703C9.97586 24.4059 10.1522 24.9017 10.25 25C10.3483 24.9017 10.4754 24.4059 10.5266 24.1703L13.1079 25V24.6005C13.0833 24.3547 12.9747 24.2113 12.9235 24.1703L10.7417 22.5109C11.0613 20.4458 11.1617 19.5198 11.1719 19.315V14.3982C11.2456 14.3736 11.2641 14.1012 11.2641 13.968L12.4318 14.0294L12.524 14.3675L12.6162 14.0909H12.9235L13.4459 14.306L13.5074 14.5826L13.6303 14.3675L14.4293 14.644L14.5214 14.9513L14.6136 14.6748L15.4126 14.9513L15.5355 15.2586L15.597 15.0128L16.1194 15.1972L16.1809 15.443L16.273 15.1972L19.4997 16.4878V16.2113L19.0695 15.7503C19.094 15.7012 19.0387 15.5864 19.008 15.5352L16.4574 13.7529C16.5803 13.6054 16.6316 13.4046 16.6418 13.3227V12.2471C16.6418 12.0996 16.5599 12.0423 16.5189 12.032H15.9043C15.7076 12.032 15.7199 12.8924 15.7506 13.3227L13.2923 11.6018C13.3906 11.5526 13.4766 11.315 13.5074 11.2023V10.219C13.5074 10.096 13.4459 9.96287 13.4152 9.91165H12.7084C12.5855 9.96082 12.5957 10.7516 12.6162 11.1408L11.1104 10.0038V3.58131Z" fill="#FFD400" stroke="black" stroke-opacity="0.3" stroke-width="0.5"/>
</svg>
