<svg width="25" height="26" viewBox="0 0 25 26" fill="none" xmlns="http://www.w3.org/2000/svg">
<path d="M13.661 3.49153C13.5797 2.31186 12.9492 1.33898 12.6441 1C12.339 1.33898 11.7085 2.31186 11.6271 3.49153V9.0339L9.44068 10.7119C9.50847 10.5932 9.64407 10.3254 9.64407 10.2034V9.13559C9.62712 9.05085 9.55254 8.88136 9.38983 8.88136H8.32203C8.25424 8.88136 8.11864 8.94237 8.11864 9.18644V10.4576C8.15254 10.7119 8.29152 11.2305 8.57627 11.2712L1.40678 16.4068C1.28814 16.5254 1.04068 16.8136 1 17.017V17.7797L1.20339 17.2712C1.88136 16.8814 3.85763 15.8881 6.33898 15.0339L6.49153 15.3898L6.64407 14.9322L8.01695 14.4237L8.16949 14.8305L8.32203 14.2712L9.0339 14.0169H9.69491L9.79661 14.2712L9.94915 14.0169H11.6271V18.7966C11.6271 19.2881 11.7085 20.6169 12.0339 22L9.44068 24.1864C9.35593 24.2712 9.18644 24.461 9.18644 24.5424V25L12.2881 23.9831L12.6441 25L13 23.9831L16.1017 25V24.5424C16.1017 24.461 15.9322 24.2712 15.8475 24.1864L13.2542 22C13.5797 20.6169 13.661 19.2881 13.661 18.7966V14.0169H15.339L15.4915 14.2712L15.5932 14.0169H16.2542L16.9661 14.2712L17.1186 14.8305L17.2712 14.4237L18.6441 14.9322L18.7966 15.3898L18.9492 15.0339C21.4305 15.8881 23.4068 16.8814 24.0847 17.2712L24.2881 17.7797V17.017C24.2475 16.8136 24 16.5254 23.8814 16.4068L16.7119 11.2712C16.9966 11.2305 17.1356 10.7119 17.1695 10.4576V9.18644C17.1695 8.94237 17.0339 8.88136 16.9661 8.88136H15.8983C15.7356 8.88136 15.661 9.05085 15.6441 9.13559V10.2034C15.6441 10.3254 15.7797 10.5932 15.8475 10.7119L13.661 9.0339V3.49153Z" fill="#FFD400" stroke="black" stroke-opacity="0.3" stroke-width="0.5"/>
</svg>
