<svg width="28" height="26" viewBox="0 0 28 26" fill="none" xmlns="http://www.w3.org/2000/svg">
<path d="M15.2117 3.18537C15.0866 1.59317 14.3518 1.06504 14 1C13.6482 1.06504 12.9134 1.59317 12.7883 3.18537V7.67317C12.6841 7.84228 12.4366 8.21171 12.2802 8.33659C12.1239 8.46146 10.2608 10.0016 9.34874 10.7561C9.38783 10.535 9.44255 9.93659 9.34874 9.31219H8.29341C8.26735 9.6374 8.23087 10.4439 8.29341 11.0683L8.48884 11.3415L5.94824 13.2927C5.9743 12.9285 6.01078 12.1141 5.94824 11.7707H4.97108C4.90594 12.148 4.81474 13.0507 4.97108 13.6439L5.12743 13.878L1.25789 16.8049C1.14064 17 0.92957 17.5541 1.02338 18.2098L5.28377 16.5707L5.44012 17.2732L5.59646 16.4146L6.65179 16.0244L6.84722 16.7268L7.00357 15.8683L8.01981 15.5171L8.17615 16.1805L8.37158 15.361L9.34874 14.9707L9.54417 15.5171L9.7396 14.8146L10.7949 14.6195L10.9122 15.1268L11.1467 14.5024L12.4756 14.3463C12.4756 14.5935 12.5225 15.3063 12.7102 16.1805C12.7232 17.2602 12.8196 19.7083 13.101 20.8634L9.34874 23.8293C9.21845 23.9333 8.96569 24.3132 8.99696 25L13.5701 23.322L14 25L14.4299 23.322L19.003 25C19.0343 24.3132 18.7815 23.9333 18.6513 23.8293L14.899 20.8634C15.1804 19.7083 15.2768 17.2602 15.2898 16.1805C15.4775 15.3063 15.5244 14.5935 15.5244 14.3463L16.8533 14.5024L17.0878 15.1268L17.2051 14.6195L18.2604 14.8146L18.4558 15.5171L18.6513 14.9707L19.6284 15.361L19.8238 16.1805L19.9802 15.5171L20.9964 15.8683L21.1528 16.7268L21.3482 16.0244L22.4035 16.4146L22.5599 17.2732L22.7162 16.5707L26.9766 18.2098C27.0704 17.5541 26.8594 17 26.7421 16.8049L22.8726 13.878L23.0289 13.6439C23.1853 13.0507 23.0941 12.148 23.0289 11.7707H22.0518C21.9892 12.1141 22.0257 12.9285 22.0518 13.2927L19.5112 11.3415L19.7066 11.0683C19.7691 10.4439 19.7326 9.6374 19.7066 9.31219H18.6513C18.5575 9.93659 18.6122 10.535 18.6513 10.7561C17.7392 10.0016 15.8761 8.46146 15.7198 8.33659C15.5634 8.21171 15.3159 7.84228 15.2117 7.67317V3.18537Z" fill="#FFD400" stroke="black" stroke-opacity="0.3" stroke-width="0.5"/>
</svg>
