<svg width="25" height="29" viewBox="0 0 25 29" fill="none" xmlns="http://www.w3.org/2000/svg">
<path d="M11.9826 1.8959C12.1643 1.22965 12.4033 1.01682 12.5 1C12.5968 1.01682 12.8357 1.21704 13.0174 1.88328C13.1991 2.54953 13.3707 3.15353 13.4338 3.37225C13.4885 3.55732 13.6054 4.04355 13.6357 4.5079C13.666 4.97226 13.6483 8.78973 13.6357 10.6404C14.0395 11.0021 14.8722 11.7256 14.9732 11.7256C14.8891 11.1704 14.7864 10.0045 15.0489 9.78237H16.3486C16.5084 9.89594 16.7322 10.542 16.3486 12.2177H15.9069L23.5536 16.4449C23.6041 16.4701 23.7151 16.5509 23.7555 16.672C23.806 16.8234 23.6672 16.7351 24.5 17.6815V17.9843C24.3233 17.8581 23.8817 17.5906 23.5284 17.53L18.6829 15.978L18.5441 16.407L18.4432 15.9149L16.8154 15.4606L16.765 15.978L16.6388 15.3975L15.9448 15.2335H15.3517L15.2634 15.713L15.1246 15.2335H13.6357V20.5711C13.6315 21.2272 13.5599 22.8701 13.3075 24.1925L17.2318 26.9307V27.3976L12.9164 26.2619L12.5 27.6247L12.0836 26.2746L7.76817 27.4102V26.9433L11.6925 24.2051C11.4401 22.8827 11.3685 21.2398 11.3643 20.5837V15.2461H9.87543L9.73663 15.7256L9.6483 15.2461H9.05524L8.36123 15.4102L8.23505 15.9906L8.18457 15.4732L6.55681 15.9275L6.45586 16.4196L6.31706 15.9906L1.47161 17.5427C1.1183 17.6032 0.676657 17.8707 0.5 17.9969V17.6941C1.33281 16.7477 1.19401 16.836 1.24448 16.6846C1.28486 16.5635 1.3959 16.4827 1.44638 16.4575L9.09309 12.2303H8.65141C8.26781 10.5546 8.49157 9.90855 8.65141 9.79499H9.9511C10.2136 10.0171 10.1109 11.183 10.0268 11.7382C10.1278 11.7382 10.9605 11.0148 11.3643 10.653C11.3517 8.80235 11.334 4.98487 11.3643 4.52052C11.3946 4.05616 11.5115 3.56994 11.5662 3.38487C11.6293 3.16615 11.8009 2.56215 11.9826 1.8959Z" fill="#FFD400" stroke="black" stroke-opacity="0.3" stroke-width="0.5"/>
</svg>