<svg width="395" height="541" viewBox="0 0 395 541" fill="none" xmlns="http://www.w3.org/2000/svg">
<path fill-rule="evenodd" clip-rule="evenodd" d="M385 197.317C385 93.8647 301.053 10 197.5 10C93.9466 10 10 93.8647 10 197.317C11.2414 252.889 64.3919 329.211 131.522 425.609L131.523 425.609L131.523 425.609C152.533 455.78 174.913 487.917 197.5 522C220.086 487.918 242.466 455.782 263.476 425.612L263.477 425.61L263.477 425.609C330.608 329.212 383.759 252.889 385 197.317ZM175.975 79.5325C176.431 59.2173 189.848 52.7128 196.5 52C203.152 52.7128 216.569 59.2173 217.025 79.5325V143.771C217.025 146.289 218.406 148.54 220.483 149.407L309.543 186.614C311.619 187.482 313 189.733 313 192.25V212.38C313 216.222 309.873 219.076 306.578 218.241L223.448 197.171C220.152 196.336 217.025 199.189 217.025 203.031V267.7C217.025 269.858 218.043 271.85 219.691 272.918L243.247 288.176C244.895 289.243 245.913 291.235 245.913 293.394V308.992C245.913 313.045 242.456 315.934 239.058 314.72L196.5 299.526L153.942 314.72C150.544 315.934 147.087 313.045 147.087 308.992L147.087 293.394C147.087 291.235 148.105 289.243 149.753 288.176L173.309 272.918C174.957 271.85 175.975 269.858 175.975 267.7L175.975 203.031C175.975 199.189 172.848 196.336 169.552 197.171L86.4222 218.241C83.127 219.076 80 216.222 80 212.38V192.251C80 189.733 81.3805 187.482 83.4575 186.614L172.517 149.407C174.594 148.54 175.975 146.289 175.975 143.771V79.5325Z" fill="#00DDFF"/>
<path d="M385 197.317L394.997 197.54L395 197.429V197.317H385ZM10 197.317H0V197.429L0.00249386 197.54L10 197.317ZM131.522 425.609L139.843 420.062L139.787 419.977L139.729 419.894L131.522 425.609ZM131.523 425.609L123.202 431.156L123.63 431.798L124.151 432.366L131.523 425.609ZM131.523 425.609L139.729 419.895L139.346 419.345L138.894 418.852L131.523 425.609ZM197.5 522L189.164 527.524L197.5 540.103L205.836 527.524L197.5 522ZM263.476 425.612L271.682 431.326L271.69 431.315L271.698 431.304L263.476 425.612ZM263.477 425.61L255.339 419.798L255.296 419.858L255.255 419.918L263.477 425.61ZM263.477 425.609L271.615 431.422L271.65 431.373L271.684 431.324L263.477 425.609ZM196.5 52L197.566 42.0569L196.5 41.9427L195.435 42.0569L196.5 52ZM175.975 79.5325L165.977 79.3081L165.975 79.4203V79.5325H175.975ZM217.025 79.5325H227.025V79.4203L227.023 79.3081L217.025 79.5325ZM220.483 149.407L224.338 140.18L224.338 140.18L220.483 149.407ZM309.543 186.614L305.688 195.842L305.688 195.842L309.543 186.614ZM306.578 218.241L309.035 208.547H309.035L306.578 218.241ZM223.448 197.171L225.904 187.478L225.904 187.478L223.448 197.171ZM219.691 272.918L225.128 264.525L225.128 264.525L219.691 272.918ZM243.247 288.176L248.683 279.783H248.683L243.247 288.176ZM239.058 314.72L242.421 305.303H242.421L239.058 314.72ZM196.5 299.526L199.862 290.108L196.5 288.907L193.138 290.108L196.5 299.526ZM153.942 314.72L150.579 305.303H150.579L153.942 314.72ZM147.087 308.992H137.087H147.087ZM147.087 293.394H157.087H147.087ZM149.753 288.176L144.317 279.783L144.317 279.783L149.753 288.176ZM173.309 272.918L178.745 281.311L178.745 281.311L173.309 272.918ZM175.975 267.7H165.975H175.975ZM175.975 203.031H185.975H175.975ZM169.552 197.171L172.009 206.865H172.009L169.552 197.171ZM86.4222 218.241L83.9654 208.547H83.9654L86.4222 218.241ZM80 212.38H70V212.38L80 212.38ZM80 192.251H90V192.25L80 192.251ZM83.4575 186.614L87.3123 195.842L87.3124 195.842L83.4575 186.614ZM172.517 149.407L168.662 140.18L168.662 140.18L172.517 149.407ZM197.5 20C295.54 20 375 99.3968 375 197.317H395C395 88.3327 306.567 0 197.5 0V20ZM20 197.317C20 99.3968 99.4603 20 197.5 20V0C88.433 0 0 88.3327 0 197.317H20ZM139.729 419.894C106.081 371.578 76.2969 328.794 54.7277 291.179C33.0117 253.308 20.5584 222.204 19.9975 197.094L0.00249386 197.54C0.682945 228.002 15.4256 262.845 37.3778 301.128C59.4768 339.667 89.8329 383.243 123.316 431.324L139.729 419.894ZM139.843 420.062L139.843 420.062L123.202 431.156L123.202 431.156L139.843 420.062ZM138.894 418.852L138.894 418.852L124.151 432.366L124.151 432.367L138.894 418.852ZM205.836 516.476C183.176 482.283 160.732 450.054 139.729 419.895L123.316 431.324C144.335 461.506 166.651 493.552 189.164 527.524L205.836 516.476ZM255.27 419.897C234.267 450.056 211.824 482.283 189.164 516.476L205.836 527.524C228.349 493.553 250.664 461.508 271.682 431.326L255.27 419.897ZM255.255 419.918L255.254 419.92L271.698 431.304L271.698 431.303L255.255 419.918ZM255.34 419.797L255.339 419.798L271.614 431.423L271.615 431.422L255.34 419.797ZM375.003 197.094C374.442 222.204 361.988 253.308 340.272 291.179C318.703 328.794 288.918 371.578 255.271 419.894L271.684 431.324C305.167 383.243 335.523 339.667 357.622 301.128C379.574 262.845 394.317 228.002 394.997 197.54L375.003 197.094ZM195.435 42.0569C189.974 42.6421 182.79 45.3808 176.833 51.3541C170.635 57.5693 166.258 66.7876 165.977 79.3081L185.972 79.757C186.147 71.9622 188.707 67.7707 190.995 65.4766C193.524 62.9406 196.374 62.0708 197.566 61.9431L195.435 42.0569ZM227.023 79.3081C226.742 66.7876 222.365 57.5693 216.167 51.3541C210.21 45.3808 203.026 42.6421 197.566 42.0569L195.435 61.9431C196.626 62.0708 199.476 62.9406 202.005 65.4766C204.293 67.7707 206.853 71.9622 207.028 79.757L227.023 79.3081ZM227.025 143.771V79.5325H207.025V143.771H227.025ZM224.338 140.18C226.518 141.091 227.025 142.869 227.025 143.771H207.025C207.025 149.709 210.294 155.988 216.628 158.635L224.338 140.18ZM313.397 177.387L224.338 140.18L216.628 158.635L305.688 195.842L313.397 177.387ZM323 192.25C323 186.313 319.732 180.034 313.397 177.387L305.688 195.842C303.507 194.931 303 193.152 303 192.25H323ZM323 212.38V192.25H303V212.38H323ZM304.121 227.934C315.333 230.776 323 220.99 323 212.38H303C303 211.584 303.333 210.545 304.284 209.678C305.286 208.763 307.063 208.047 309.035 208.547L304.121 227.934ZM220.991 206.865L304.121 227.934L309.035 208.547L225.904 187.478L220.991 206.865ZM227.025 203.031C227.025 203.828 226.692 204.867 225.741 205.734C224.739 206.648 222.962 207.364 220.991 206.865L225.904 187.478C214.692 184.636 207.025 194.422 207.025 203.031H227.025ZM227.025 267.7V203.031H207.025V267.7H227.025ZM225.128 264.525C226.644 265.507 227.025 266.866 227.025 267.7H207.025C207.025 272.85 209.442 278.194 214.255 281.311L225.128 264.525ZM248.683 279.783L225.128 264.525L214.255 281.311L237.81 296.569L248.683 279.783ZM255.913 293.394C255.913 288.243 253.496 282.9 248.683 279.783L237.81 296.569C236.294 295.587 235.913 294.227 235.913 293.394H255.913ZM255.913 308.992V293.394H235.913V308.992H255.913ZM235.696 324.138C247.344 328.297 255.913 318.004 255.913 308.992H235.913C235.913 308.161 236.283 307.047 237.347 306.158C238.482 305.21 240.435 304.594 242.421 305.303L235.696 324.138ZM193.138 308.943L235.696 324.138L242.421 305.303L199.862 290.108L193.138 308.943ZM157.304 324.138L199.862 308.943L193.138 290.108L150.579 305.303L157.304 324.138ZM137.087 308.992C137.087 318.004 145.656 328.297 157.304 324.138L150.579 305.303C152.565 304.594 154.518 305.21 155.653 306.158C156.717 307.047 157.087 308.161 157.087 308.992H137.087ZM137.087 293.394L137.087 308.992H157.087L157.087 293.394H137.087ZM144.317 279.783C139.504 282.9 137.087 288.243 137.087 293.394H157.087C157.087 294.227 156.706 295.587 155.19 296.569L144.317 279.783ZM167.872 264.525L144.317 279.783L155.19 296.569L178.745 281.311L167.872 264.525ZM165.975 267.7C165.975 266.866 166.356 265.507 167.872 264.525L178.745 281.311C183.558 278.194 185.975 272.85 185.975 267.7H165.975ZM165.975 203.031L165.975 267.7H185.975L185.975 203.031H165.975ZM172.009 206.865C170.038 207.364 168.261 206.648 167.259 205.734C166.308 204.867 165.975 203.828 165.975 203.031H185.975C185.975 194.422 178.308 184.636 167.096 187.478L172.009 206.865ZM88.8791 227.934L172.009 206.865L167.096 187.478L83.9654 208.547L88.8791 227.934ZM70 212.38C70 220.99 77.6668 230.776 88.8791 227.934L83.9654 208.547C85.9368 208.047 87.7141 208.763 88.7159 209.678C89.6669 210.545 90 211.584 90 212.38L70 212.38ZM70 192.251V212.38H90V192.251H70ZM79.6027 177.387C73.2685 180.034 70 186.313 70 192.251L90 192.25C90 193.152 89.4926 194.931 87.3123 195.842L79.6027 177.387ZM168.662 140.18L79.6026 177.387L87.3124 195.842L176.372 158.635L168.662 140.18ZM165.975 143.771C165.975 142.869 166.482 141.091 168.662 140.18L176.372 158.635C182.706 155.988 185.975 149.709 185.975 143.771H165.975ZM165.975 79.5325V143.771H185.975V79.5325H165.975Z" fill="black" fill-opacity="0.3"/>
</svg>
