<svg width="395" height="541" viewBox="0 0 395 541" fill="none" xmlns="http://www.w3.org/2000/svg">
<path fill-rule="evenodd" clip-rule="evenodd" d="M197.5 10C301.053 10 385 93.8647 385 197.317C383.759 252.889 330.608 329.212 263.477 425.609C242.467 455.78 220.087 487.917 197.5 522C174.913 487.917 152.533 455.78 131.523 425.609C64.3921 329.212 11.2414 252.889 10 197.317C10 93.8647 93.9466 10 197.5 10ZM291.074 291.074C295.92 285.221 302.114 269.834 288.125 255.111L242.73 209.717C240.951 207.937 240.471 205.237 241.528 202.953L286.859 105.037C287.916 102.753 287.436 100.053 285.657 98.2735L271.432 84.0485C268.717 81.3335 264.186 81.832 262.126 85.0722L210.16 166.816C208.1 170.056 203.569 170.555 200.854 167.84L155.155 122.141C153.63 120.616 153.041 118.39 153.612 116.31L161.773 86.584C162.344 84.5041 161.755 82.2778 160.23 80.7527L149.207 69.73C146.343 66.8658 141.522 67.6042 139.647 71.1945L116.158 116.158L71.1945 139.647C67.6042 141.522 66.8658 146.343 69.73 149.207L80.7527 160.23C82.2778 161.755 84.5041 162.344 86.584 161.773L116.31 153.612C118.39 153.041 120.616 153.63 122.141 155.155L167.84 200.854C170.555 203.569 170.056 208.1 166.816 210.16L85.0722 262.126C81.832 264.186 81.3335 268.717 84.0485 271.432L98.2735 285.657C100.053 287.436 102.753 287.916 105.037 286.859L202.953 241.528C205.237 240.471 207.937 240.951 209.717 242.73L255.111 288.125C269.834 302.114 285.221 295.92 291.074 291.074Z" fill="#00DDFF" stroke="black" stroke-opacity="0.3" stroke-width="20"/>
</svg>
