<svg width="25" height="26" viewBox="0 0 25 26" fill="none" xmlns="http://www.w3.org/2000/svg">
<path d="M12.8802 2.81493C12.8418 2.01254 12.5441 1.27065 12.4 1C12.2559 1.27065 11.9582 2.01254 11.9198 2.81493L11.8477 3.24478L11.4155 3.96119V4.15224L11.7997 3.88955C11.7357 5.8 11.2715 10.1845 9.92685 12.4388L1.35486 14.9224C1.18678 15.1214 0.889041 15.677 1.04271 16.3075L9.15849 15.8537L9.92685 15.1373C9.78278 15.6627 9.55708 17.0812 9.80679 18.5522V19.1015H10.4551V18.5522L10.5751 18.7433L10.6952 18.5522L10.7192 19.1015H11.2955L11.3675 18.6478C11.4716 19.0219 11.7037 20.0328 11.7997 21.0836L8.94239 23.6627C8.86235 23.8458 8.71668 24.3696 8.77431 25L12.0638 23.6866C12.0638 23.8537 12.1311 24.2167 12.4 24.3313C12.6689 24.2167 12.7362 23.8537 12.7362 23.6866L16.0257 25C16.0833 24.3696 15.9376 23.8458 15.8576 23.6627L13.0003 21.0836C13.0963 20.0328 13.3284 19.0219 13.4325 18.6478L13.5045 19.1015H14.0808L14.1048 18.5522L14.2248 18.7433L14.3449 18.5522V19.1015H14.9932V18.5522C15.2429 17.0812 15.0172 15.6627 14.8732 15.1373L15.6415 15.8537L23.7573 16.3075C23.911 15.677 23.6132 15.1214 23.4451 14.9224L14.8732 12.4388C13.5285 10.1845 13.0643 5.8 13.0003 3.88955L13.3845 4.15224V3.96119L12.9523 3.24478L12.8802 2.81493Z" fill="#FFD400"/>
<path d="M12.4 1C12.5441 1.27065 12.8418 2.01254 12.8802 2.81493L12.9523 3.24478L13.3845 3.96119V4.15224L13.0003 3.88955C13.0643 5.8 13.5285 10.1845 14.8732 12.4388L23.4451 14.9224C23.6132 15.1214 23.911 15.677 23.7573 16.3075L15.6415 15.8537L14.8732 15.1373C15.0172 15.6627 15.2429 17.0812 14.9932 18.5522V19.1015H14.3449V18.5522L14.2248 18.7433L14.1048 18.5522L14.0808 19.1015H13.5045L13.4325 18.6478C13.3284 19.0219 13.0963 20.0328 13.0003 21.0836L15.8576 23.6627C15.9376 23.8458 16.0833 24.3696 16.0257 25L12.7362 23.6866C12.7362 23.8537 12.6689 24.2167 12.4 24.3313M12.4 1C12.2559 1.27065 11.9582 2.01254 11.9198 2.81493L11.8477 3.24478L11.4155 3.96119V4.15224L11.7997 3.88955C11.7357 5.8 11.2715 10.1845 9.92685 12.4388L1.35486 14.9224C1.18678 15.1214 0.889041 15.677 1.04271 16.3075L9.15849 15.8537L9.92685 15.1373C9.78278 15.6627 9.55708 17.0812 9.80679 18.5522V19.1015H10.4551V18.5522L10.5751 18.7433L10.6952 18.5522L10.7192 19.1015H11.2955L11.3675 18.6478C11.4716 19.0219 11.7037 20.0328 11.7997 21.0836L8.94239 23.6627C8.86235 23.8458 8.71668 24.3696 8.77431 25L12.0638 23.6866C12.0638 23.8537 12.1311 24.2167 12.4 24.3313" stroke="black" stroke-opacity="0.3" stroke-width="0.5"/>
</svg>
