<svg width="29" height="26" viewBox="0 0 29 26" fill="none" xmlns="http://www.w3.org/2000/svg">
<path d="M15.2023 1.95364C15.177 1.52132 14.7902 1.13775 14.6 1C14.4098 1.13775 14.023 1.52132 13.9977 1.95364C13.9026 2.03841 13.7504 2.31603 13.9026 2.74834L13.8075 6.88079L10.7641 9.16954C10.8169 8.80927 10.8655 8.02517 10.6373 7.77086H10.2569L10.0984 7.51656L9.90816 7.77086H9.40093C9.28469 8.23709 9.12196 9.28397 9.40093 9.74172H9.90816L6.64289 12.1576C6.70629 11.8079 6.79506 11.0323 6.64289 10.7272H6.13566L5.94546 10.4411L5.75525 10.7272H5.31142C5.20575 11.2464 5.05781 12.3928 5.31142 12.8252H5.75525L1 16.3219V18.1338L5.53333 15.5907H6.13566L13.8075 11.4265V16.7351L13.966 19.1828L10.8909 22.0437V23.0291L14.2196 22.6159L14.3464 24.396C14.3675 24.5126 14.4352 24.733 14.5366 24.6821L14.6 25L14.6634 24.6821C14.7648 24.733 14.8325 24.5126 14.8536 24.396L14.9804 22.6159L18.3091 23.0291V22.0437L15.234 19.1828L15.3925 16.7351V11.4265L23.0643 15.5907H23.6667L28.2 18.1338V16.3219L23.4448 12.8252H23.8886C24.1422 12.3928 23.9942 11.2464 23.8886 10.7272H23.4448L23.2545 10.4411L23.0643 10.7272H22.5571C22.4049 11.0323 22.4937 11.8079 22.5571 12.1576L19.2918 9.74172H19.7991C20.078 9.28397 19.9153 8.23709 19.7991 7.77086H19.2918L19.1016 7.51656L18.9431 7.77086H18.5627C18.3345 8.02517 18.3831 8.80927 18.4359 9.16954L15.3925 6.88079L15.2974 2.74834C15.4496 2.31603 15.2974 2.03841 15.2023 1.95364Z" fill="#FFD400" stroke="black" stroke-opacity="0.3" stroke-width="0.5"/>
</svg>
