<svg width="26" height="28" viewBox="0 0 26 28" fill="none" xmlns="http://www.w3.org/2000/svg">
<path d="M13.4317 1.48557C13.2374 1.07606 13.0629 0.991644 13 1.00062C12.937 0.991644 12.7626 1.07606 12.5683 1.48557C12.3255 1.99745 11.9748 2.9404 11.8669 5.6884V9.64875L9.30397 11.9657C9.35792 11.5436 9.42807 10.6779 9.27699 10.5917H8.25181C8.17987 10.8162 8.07915 11.4969 8.25181 12.4237H8.41372L8.46767 12.747L6.09358 14.9292C6.12955 14.5161 6.17991 13.6792 6.09358 13.636H5.01445C4.9515 13.9055 4.86876 14.649 5.04143 15.468H5.20323V15.7105L1.80357 18.6204C1.625 18.9056 1.21428 19.599 1 20.091V20.4118C1.17857 20.2692 1.64821 19.9145 2.09821 19.6364L6.41071 17.123C6.41071 17.2389 6.4375 17.492 6.54464 17.5776C6.58928 17.5152 6.67857 17.3262 6.67857 17.0696L7.61607 16.4813C7.60714 16.5883 7.62143 16.8236 7.75 16.9091C7.78571 16.9002 7.85714 16.7808 7.85714 16.3744L9.08929 15.7105L9.75893 15.492C9.76786 15.5633 9.80179 15.7166 9.86607 15.7594C9.90179 15.7327 9.97857 15.6364 10 15.4653L10.75 15.1712C10.7679 15.2335 10.8143 15.3744 10.8571 15.4385C10.875 15.4296 10.9268 15.353 10.9911 15.1177L11.8482 14.7968V20.8396C11.875 21.3476 11.9875 22.6097 12.2232 23.5936C12.2232 23.6382 11.6071 24.3049 9.14286 26.615V27.4439H9.30357L12.7321 26.5081C12.8125 26.624 12.9786 27.0268 13 27.7113C13.0214 27.0268 13.1875 26.624 13.2679 26.5081L16.6964 27.4439H16.8571V26.615C14.3929 24.3049 13.7768 23.6382 13.7768 23.5936C14.0125 22.6097 14.125 21.3476 14.1518 20.8396V14.7968L15.0089 15.1177C15.0732 15.353 15.125 15.4296 15.1429 15.4385C15.1857 15.3744 15.2321 15.2335 15.25 15.1712L16 15.4653C16.0214 15.6364 16.0982 15.7327 16.1339 15.7594C16.1982 15.7166 16.2321 15.5633 16.2411 15.492L16.9107 15.7105L18.1429 16.3744C18.1429 16.7808 18.2143 16.9002 18.25 16.9091C18.3786 16.8236 18.3929 16.5883 18.3839 16.4813L19.3214 17.0696C19.3214 17.3262 19.4107 17.5152 19.4554 17.5776C19.5625 17.492 19.5893 17.2389 19.5893 17.123L23.9018 19.6364C24.3518 19.9145 24.8214 20.2692 25 20.4118V20.091C24.7857 19.599 24.375 18.9056 24.1964 18.6204L20.7968 15.7105V15.468H20.9586C21.1312 14.649 21.0485 13.9055 20.9856 13.636H19.9064C19.8201 13.6792 19.8704 14.5161 19.9064 14.9292L17.5323 12.747L17.5863 12.4237H17.7482C17.9208 11.4969 17.8201 10.8162 17.7482 10.5917H16.723C16.5719 10.6779 16.6421 11.5436 16.696 11.9657L14.1331 9.64875V5.6884C14.0252 2.9404 13.6745 1.99745 13.4317 1.48557Z" fill="#FFD400" stroke="black" stroke-opacity="0.3" stroke-width="0.502092"/>
</svg>
