<svg width="21" height="26" viewBox="0 0 21 26" fill="none" xmlns="http://www.w3.org/2000/svg">
<path d="M11.2868 3.05613C11.23 1.63811 10.6719 1.09453 10.4 1C10.128 1.09453 9.56996 1.63811 9.51321 3.05613V10.1462L7.81057 11.0679V9.82718C7.81057 9.76809 7.78219 9.63575 7.66868 9.57902H6.71094C6.66365 9.60266 6.57615 9.68538 6.60453 9.82718V11.7061L1 14.8612V15.8183L6.64 14.3648H9.44226V20.1787L9.58415 21.5968L6.67547 23.7238V24.5746L9.97434 23.7238L10.4 25L10.8257 23.7238L14.1245 24.5746V23.7238L11.2158 21.5968L11.3577 20.1787V14.3648H14.16L19.8 15.8183V14.8612L14.1955 11.7061V9.82718C14.2238 9.68538 14.1364 9.60266 14.0891 9.57902H13.1313C13.0178 9.63575 12.9894 9.76809 12.9894 9.82718V11.0679L11.2868 10.1462V3.05613Z" fill="#FFD400"/>
<path d="M10.4 1C10.6719 1.09453 11.23 1.63811 11.2868 3.05613V10.1462L12.9894 11.0679V9.82718C12.9894 9.76809 13.0178 9.63575 13.1313 9.57902H14.0891C14.1364 9.60266 14.2238 9.68538 14.1955 9.82718V11.7061L19.8 14.8612V15.8183L14.16 14.3648H11.3577V20.1787L11.2158 21.5968L14.1245 23.7238V24.5746L10.8257 23.7238L10.4 25M10.4 1C10.128 1.09453 9.56996 1.63811 9.51321 3.05613V10.1462L7.81057 11.0679V9.82718C7.81057 9.76809 7.78219 9.63575 7.66868 9.57902H6.71094C6.66365 9.60266 6.57615 9.68538 6.60453 9.82718V11.7061L1 14.8612V15.8183L6.64 14.3648H9.44226V20.1787L9.58415 21.5968L6.67547 23.7238V24.5746L9.97434 23.7238L10.4 25" stroke="black" stroke-opacity="0.3" stroke-width="0.5"/>
</svg>
