<svg width="26" height="26" viewBox="0 0 26 26" fill="none" xmlns="http://www.w3.org/2000/svg">
<path d="M14.3649 4.133C14.1275 2.33596 13.3561 1.29557 13 1C12.6439 1.29557 11.8725 2.33596 11.6351 4.133V8.68473L9.61735 10.2217C9.69648 9.867 9.80726 9.06305 9.61735 8.68473H8.54915C8.43046 9.09852 8.2643 10.1153 8.54915 10.8719L1.13107 15.8966C1.03216 16.1724 0.89369 16.7951 1.13107 17.0788L8.37112 14.3596L9.32063 14.1823L11.6351 13.8867V17.7882C11.6944 18.6355 11.8606 20.4128 12.0505 20.7438L8.37112 23.7586V24.4089L12.6439 23.4631L12.822 24.1133L13 25L13.178 24.1133L13.3561 23.4631L17.6289 24.4089V23.7586L13.9495 20.7438C14.1394 20.4128 14.3056 18.6355 14.3649 17.7882V13.8867L16.6794 14.1823L17.6289 14.3596L24.8689 17.0788C25.1063 16.7951 24.9678 16.1724 24.8689 15.8966L17.4508 10.8719C17.7357 10.1153 17.5695 9.09852 17.4508 8.68473H16.3826C16.1927 9.06305 16.3035 9.867 16.3826 10.2217L14.3649 8.68473V4.133Z" fill="#FFD400" stroke="black" stroke-opacity="0.3" stroke-width="0.5"/>
</svg>
