<svg width="23" height="26" viewBox="0 0 23 26" fill="none" xmlns="http://www.w3.org/2000/svg">
<path d="M11.9256 1.32558C11.8326 1.13953 11.6775 1.03101 11.6 1C11.5222 1.03101 11.3665 1.13953 11.2731 1.32558C11.1607 1.54961 10.8342 2.34884 10.5727 3.65116V9.60465C10.526 9.69767 10.4139 9.89302 10.3392 9.93023C10.2645 9.96744 9.40529 10.5349 8.98502 10.814C9.06285 10.4729 9.18115 9.68837 9.03172 9.27907C9.00059 9.24806 8.72352 9.19535 7.86432 9.23256C7.78649 9.48062 7.66819 10.1814 7.81762 11L8.00441 11.0465L8.0978 11.4186L1.42026 15.9767L1 16.7674V17L1.84053 16.3953L3.94185 15.5581L5.15595 15.1395L5.20264 15.3721C5.24934 15.2946 5.34273 15.1209 5.34273 15.0465L6.97709 14.5349L7.02379 14.7674L7.11718 14.4884L8.0511 14.1628L8.75154 14.0233L8.79824 14.2093L8.89163 14.0233H10.5727V19.2326C10.6038 19.7907 10.7128 21.0744 10.8996 21.7442C10.9151 21.8062 10.9089 21.9581 10.7595 22.0698L8.0978 24.2093C8.06667 24.3333 8.02308 24.6651 8.0978 25L11.3198 23.8372L11.6 24.7674L11.8791 23.8372L15.0884 25C15.1628 24.6651 15.1194 24.3333 15.0884 24.2093L12.4372 22.0698C12.2884 21.9581 12.2822 21.8062 12.2977 21.7442C12.4837 21.0744 12.5922 19.7907 12.6233 19.2326V14.0233H14.2977L14.3907 14.2093L14.4372 14.0233L15.1349 14.1628L16.0651 14.4884L16.1581 14.7674L16.2046 14.5349L17.8326 15.0465C17.8326 15.1209 17.9256 15.2946 17.9721 15.3721L18.0186 15.1395L19.2279 15.5581L21.3209 16.3953L22.1581 17V16.7674L21.7395 15.9767L15.0884 11.4186L15.1814 11.0465L15.3674 11C15.5163 10.1814 15.3984 9.48062 15.3209 9.23256C14.4651 9.19535 14.1891 9.24806 14.1581 9.27907C14.0093 9.68837 14.1271 10.4729 14.2046 10.814C13.786 10.5349 12.9302 9.96744 12.8558 9.93023C12.7814 9.89302 12.6698 9.69767 12.6233 9.60465V3.65116C12.3628 2.34884 12.0376 1.54961 11.9256 1.32558Z" fill="#FFD400" stroke="black" stroke-opacity="0.3" stroke-width="0.5"/>
</svg>
