<svg width="28" height="26" viewBox="0 0 28 26" fill="none" xmlns="http://www.w3.org/2000/svg">
<path d="M15.1368 4.15092C15.1133 2.47828 14.3025 1.35337 13.9 1C13.4966 1.35337 12.6838 2.47828 12.6602 4.15092V8.71534L10.5643 10.2761C10.5938 9.9816 10.6351 9.28663 10.5643 8.86258C10.3675 8.77423 9.85583 8.65055 9.38352 8.86258C9.33432 8.91166 9.26545 9.30429 9.38352 10.4822H9.56064V10.9828L2.0627 16.0479C1.83638 16.4405 1.307 17.2906 1 17.5497V17.9031L2.0627 17.108L8.37986 14.7521L8.52746 14.9288L8.64554 14.6638L9.56064 14.3693L10.7414 14.1926L10.8005 14.4577L10.9481 14.1337L12.6602 13.9276V18.1681C12.6799 18.7963 12.7724 20.1764 12.9849 20.6712L9.354 23.8221V24.5583L13.5458 23.616L13.9 25L14.2534 23.616L18.435 24.5583V23.8221L14.8129 20.6712C15.0249 20.1764 15.1172 18.7963 15.1368 18.1681V13.9276L16.8448 14.1337L16.992 14.4577L17.0509 14.1926L18.2288 14.3693L19.1417 14.6638L19.2595 14.9288L19.4067 14.7521L25.7086 17.108L26.7687 17.9031V17.5497C26.4625 17.2906 25.9344 16.4405 25.7086 16.0479L18.2288 10.9828V10.4822H18.4055C18.5233 9.30429 18.4546 8.91166 18.4055 8.86258C17.9344 8.65055 17.4239 8.77423 17.2276 8.86258C17.1569 9.28663 17.1982 9.9816 17.2276 10.2761L15.1368 8.71534V4.15092Z" fill="#FFD400" stroke="black" stroke-opacity="0.3" stroke-width="0.5"/>
</svg>
