<svg width="21" height="26" viewBox="0 0 21 26" fill="none" xmlns="http://www.w3.org/2000/svg">
<path d="M11.423 2.64602C11.1894 1.37168 10.777 1.0177 10.6 1C10.4232 1.0177 10.0113 1.37168 9.7779 2.64602C9.6453 2.85841 9.29525 3.57522 8.9558 4.74336V9.68142L7.5768 10.4513V10.2389H7.73591C7.78011 9.61947 7.82077 8.36991 7.62983 8.32743H6.78122C6.67514 8.27434 6.49481 8.5823 6.6221 10.2389L6.78122 10.292V10.9027L1.21215 14.2212C1.15028 14.2655 1.02122 14.3858 1 14.5133V15.6283L1.10608 15.4425L2.85635 14.885L2.98895 15.1239L3.06851 14.7788L3.99669 14.5133L4.10276 14.7788L4.23536 14.3805L4.87182 14.2212L4.9779 14.5133L5.08398 14.0885L6.03867 13.7168L6.17127 14.0885L6.30387 13.6106L6.6221 13.4779H8.02762L8.16022 13.8761L8.29282 13.4779H8.9558V16.2389C9.02652 17.2566 9.28464 19.7381 9.75138 21.5221L7.15249 23.4602L6.96685 23.3274C6.90497 23.5841 6.81834 24.2779 6.96685 25L7.07293 24.6549L10.1227 23.5929L10.6 25L11.0779 23.5929L14.131 24.6549L14.2372 25C14.3858 24.2779 14.2991 23.5841 14.2372 23.3274L14.0513 23.4602L11.4496 21.5221C11.9168 19.7381 12.1752 17.2566 12.246 16.2389V13.4779H12.9097L13.0425 13.8761L13.1752 13.4779H14.5823L14.9009 13.6106L15.0336 14.0885L15.1664 13.7168L16.1221 14.0885L16.2283 14.5133L16.3345 14.2212L16.9717 14.3805L17.1044 14.7788L17.2106 14.5133L18.1398 14.7788L18.2195 15.1239L18.3522 14.885L20.1044 15.4425L20.2106 15.6283V14.5133C20.1894 14.3858 20.0602 14.2655 19.9982 14.2212L14.423 10.9027V10.292L14.5823 10.2389C14.7097 8.5823 14.5292 8.27434 14.423 8.32743H13.5735C13.3823 8.36991 13.423 9.61947 13.4673 10.2389H13.6265V10.4513L12.246 9.68142V4.74336C11.9062 3.57522 11.5558 2.85841 11.423 2.64602Z" fill="#FFD400" stroke="black" stroke-opacity="0.3" stroke-width="0.5"/>
</svg>
