<svg width="26" height="26" viewBox="0 0 26 26" fill="none" xmlns="http://www.w3.org/2000/svg">
<path d="M13.3196 1.4794C13.2477 1.16779 13.0099 1.02996 12.9 1C12.7901 1.02996 12.5523 1.16779 12.4804 1.4794C12.1606 2.09863 11.5032 3.6367 11.4312 4.83521V7.35206L9.72267 8.49064L9.84257 7.8015H10.0524C10.1223 7.50187 10.2203 6.67491 10.0524 5.76404H9.0932C8.98329 6.1236 8.82942 7.03446 9.0932 7.8015H9.2131L9.30302 8.7603L6.69521 10.1685L6.81511 9.38951H6.99496C7.09488 9.0799 7.23476 8.22697 6.99496 7.29213H6.12569C5.9958 7.73159 5.81395 8.76629 6.12569 9.38951H6.24559L6.36549 10.4082L1.38967 13.2247V13.6742L1 14.3333V14.7528L1.4796 14.3333L10.9217 12.3558C11.0016 12.7353 11.2154 13.5543 11.4312 13.794V17.9888C11.5911 18.9576 12.0247 21.027 12.4804 21.5543L8.43375 23.9813V25L12.6902 23.9813L12.9 25L13.1098 23.9813L17.3662 25V23.9813L13.3196 21.5543C13.7753 21.027 14.2089 18.9576 14.3688 17.9888V13.794C14.5846 13.5543 14.7984 12.7353 14.8783 12.3558L24.3204 14.3333L24.8 14.7528V14.3333L24.4103 13.6742V13.2247L19.4345 10.4082L19.5544 9.38951H19.6743C19.986 8.76629 19.8042 7.73159 19.6743 7.29213H18.805C18.5652 8.22697 18.7051 9.0799 18.805 9.38951H18.9849L19.1048 10.1685L16.497 8.7603L16.5869 7.8015H16.7068C16.9706 7.03446 16.8167 6.1236 16.7068 5.76404H15.7476C15.5797 6.67491 15.6777 7.50187 15.7476 7.8015H15.9574L16.0773 8.49064L14.3688 7.35206V4.83521C14.2968 3.6367 13.6394 2.09863 13.3196 1.4794Z" fill="#FFD400"/>
<path d="M12.9 1C13.0099 1.02996 13.2477 1.16779 13.3196 1.4794C13.6394 2.09863 14.2968 3.6367 14.3688 4.83521V7.35206L16.0773 8.49064L15.9574 7.8015H15.7476C15.6777 7.50187 15.5797 6.67491 15.7476 5.76404H16.7068C16.8167 6.1236 16.9706 7.03446 16.7068 7.8015H16.5869L16.497 8.7603L19.1048 10.1685L18.9849 9.38951H18.805C18.7051 9.0799 18.5652 8.22697 18.805 7.29213H19.6743C19.8042 7.73159 19.986 8.76629 19.6743 9.38951H19.5544L19.4345 10.4082L24.4103 13.2247V13.6742L24.8 14.3333V14.7528L24.3204 14.3333L14.8783 12.3558C14.7984 12.7353 14.5846 13.5543 14.3688 13.794V17.9888C14.2089 18.9576 13.7753 21.027 13.3196 21.5543L17.3662 23.9813V25L13.1098 23.9813L12.9 25M12.9 1C12.7901 1.02996 12.5523 1.16779 12.4804 1.4794C12.1606 2.09863 11.5032 3.6367 11.4312 4.83521V7.35206L9.72267 8.49064L9.84257 7.8015H10.0524C10.1223 7.50187 10.2203 6.67491 10.0524 5.76404H9.0932C8.98329 6.1236 8.82942 7.03446 9.0932 7.8015H9.2131L9.30302 8.7603L6.69521 10.1685L6.81511 9.38951H6.99496C7.09488 9.0799 7.23476 8.22697 6.99496 7.29213H6.12569C5.9958 7.73159 5.81395 8.76629 6.12569 9.38951H6.24559L6.36549 10.4082L1.38967 13.2247V13.6742L1 14.3333V14.7528L1.4796 14.3333L10.9217 12.3558C11.0016 12.7353 11.2154 13.5543 11.4312 13.794V17.9888C11.5911 18.9576 12.0247 21.027 12.4804 21.5543L8.43375 23.9813V25L12.6902 23.9813L12.9 25" stroke="black" stroke-opacity="0.3" stroke-width="0.5"/>
</svg>
