<svg width="34" height="26" viewBox="0 0 34 26" fill="none" xmlns="http://www.w3.org/2000/svg">
<path d="M17.6608 2.16239L17.1829 1L16.7049 2.16239C16.4545 2.16239 15.9265 2.34017 15.8172 3.05128C15.7034 3.41595 15.4895 4.69231 15.5441 6.88034H9.3987L1.7511 7.2906C1.50073 7.26781 1 7.38632 1 8.04274V10.7778L9.3987 11.9402H15.5441L16.4318 19.8718L12.608 20.6239C12.3804 20.6923 11.9251 20.9248 11.9251 21.3077V23.1538L16.4318 23.9744L16.8414 23.2222L17.1829 25L17.5243 23.2222L17.934 23.9744L22.4406 23.1538V21.3077C22.4406 20.9248 21.9854 20.6923 21.7578 20.6239L17.934 19.8718L18.8216 11.9402H24.967L33.3657 10.7778V8.04274C33.3657 7.38632 32.865 7.26781 32.6146 7.2906L24.967 6.88034H18.8216C18.8763 4.69231 18.6623 3.41595 18.5485 3.05128C18.4392 2.34017 17.9112 2.16239 17.6608 2.16239Z" fill="#FFD400"/>
<path d="M17.1829 1L17.6608 2.16239C17.9112 2.16239 18.4392 2.34017 18.5485 3.05128C18.6623 3.41595 18.8763 4.69231 18.8216 6.88034H24.967L32.6146 7.2906C32.865 7.26781 33.3657 7.38632 33.3657 8.04274V10.7778L24.967 11.9402H18.8216L17.934 19.8718L21.7578 20.6239C21.9854 20.6923 22.4406 20.9248 22.4406 21.3077V23.1538L17.934 23.9744L17.5243 23.2222L17.1829 25M17.1829 1L16.7049 2.16239C16.4545 2.16239 15.9265 2.34017 15.8172 3.05128C15.7034 3.41595 15.4895 4.69231 15.5441 6.88034H9.3987L1.7511 7.2906C1.50073 7.26781 1 7.38633 1 8.04274V10.7778L9.3987 11.9402H15.5441L16.4318 19.8718L12.608 20.6239C12.3804 20.6923 11.9251 20.9248 11.9251 21.3077V23.1538L16.4318 23.9744L16.8414 23.2222L17.1829 25" stroke="black" stroke-opacity="0.3" stroke-width="0.5"/>
</svg>
