<svg width="12" height="26" viewBox="0 0 12 26" fill="none" xmlns="http://www.w3.org/2000/svg">
<path d="M6.89938 5.463C6.84481 3.27704 6.4825 1.57685 6.30817 1C6.13352 1.57685 5.77051 3.27704 5.71584 5.463V8.62808L4.5085 12.8634C4.2807 13.6603 3.45606 15.6915 1.97991 17.4402C1.6458 17.9108 0.982144 19.1435 1.00037 20.3093L1.41041 20.537L3.62007 20.7192L3.71119 20.5825L3.73398 20.7875H4.18958L4.25792 20.6509L4.34904 20.7875H4.7363L4.80464 20.6509L4.89576 20.833L5.78418 20.9013L6.30817 25L6.83117 20.9013L7.71799 20.833L7.80895 20.6509L7.87717 20.7875H8.26373L8.35469 20.6509L8.4229 20.7875H8.87768L8.90042 20.5825L8.99138 20.7192L11.1971 20.537L11.6064 20.3093C11.6246 19.1435 10.9621 17.9108 10.6286 17.4402C9.1551 15.6915 8.33195 13.6603 8.10456 12.8634L6.89938 8.62808V5.463Z" fill="#FFD400" stroke="black" stroke-opacity="0.3" stroke-width="0.5"/>
</svg>
