<svg width="18" height="26" viewBox="0 0 18 26" fill="none" xmlns="http://www.w3.org/2000/svg">
<path d="M10.1722 3.10526C10.1045 1.96 9.49588 1.22456 9.2 1C8.90412 1.22456 8.29546 1.96 8.22783 3.10526V10.9789L1.33814 14.9789L1 16.4526L1.46495 15.8632L5.86082 14.5579H8.22783V17.9684L7.97423 17.8H7.04433C6.9457 18.1509 6.88371 19.1305 7.42474 20.2421H7.97423V19.7789L8.60825 20.2421C8.60825 20.593 8.68433 21.4547 8.98866 22.0947L6.19897 24.0737V25L9.2 24.0737L12.201 25V24.0737L9.41134 22.0947C9.71567 21.4547 9.79175 20.593 9.79175 20.2421L10.4258 19.7789V20.2421H10.9753C11.5163 19.1305 11.4543 18.1509 11.3557 17.8H10.4258L10.1722 17.9684V14.5579H12.5392L16.9351 15.8632L17.4 16.4526L17.0619 14.9789L10.1722 10.9789V3.10526Z" fill="#FFD400"/>
<path d="M9.2 1C9.49588 1.22456 10.1045 1.96 10.1722 3.10526V10.9789L17.0619 14.9789L17.4 16.4526L16.9351 15.8632L12.5392 14.5579H10.1722V17.9684L10.4258 17.8H11.3557C11.4543 18.1509 11.5163 19.1305 10.9753 20.2421H10.4258V19.7789L9.79175 20.2421C9.79175 20.593 9.71567 21.4547 9.41134 22.0947L12.201 24.0737V25L9.2 24.0737M9.2 1C8.90412 1.22456 8.29546 1.96 8.22783 3.10526V10.9789L1.33814 14.9789L1 16.4526L1.46495 15.8632L5.86082 14.5579H8.22783V17.9684L7.97423 17.8H7.04433C6.9457 18.1509 6.88371 19.1305 7.42474 20.2421H7.97423V19.7789L8.60825 20.2421C8.60825 20.593 8.68433 21.4547 8.98866 22.0947L6.19897 24.0737V25L9.2 24.0737" stroke="black" stroke-opacity="0.39" stroke-width="0.5"/>
</svg>
