<svg width="395" height="541" viewBox="0 0 395 541" fill="none" xmlns="http://www.w3.org/2000/svg">
<path fill-rule="evenodd" clip-rule="evenodd" d="M197.5 10C301.053 10 385 93.8647 385 197.317C383.759 252.889 330.608 329.212 263.477 425.609C242.467 455.78 220.087 487.917 197.5 522C174.913 487.917 152.533 455.78 131.523 425.609C64.3921 329.212 11.2414 252.889 10 197.317C10 93.8647 93.9466 10 197.5 10ZM291.075 103.692C285.222 98.8459 269.835 92.6518 255.112 106.641L209.717 152.036C207.938 153.815 205.237 154.295 202.954 153.238L105.037 107.907C102.754 106.85 100.053 107.33 98.274 109.109L84.049 123.334C81.334 126.049 81.8324 130.58 85.0727 132.64L166.817 184.606C170.057 186.666 170.555 191.198 167.84 193.913L122.142 239.611C120.617 241.136 118.39 241.726 116.31 241.155L86.5845 232.993C84.5046 232.422 82.2783 233.011 80.7532 234.536L69.7305 245.559C66.8662 248.423 67.6047 253.244 71.195 255.119L116.159 278.608L139.647 323.572C141.523 327.162 146.344 327.9 149.208 325.036L160.231 314.013C161.756 312.488 162.345 310.262 161.774 308.182L153.612 278.456C153.041 276.376 153.63 274.15 155.155 272.625L200.854 226.926C203.569 224.211 208.1 224.71 210.16 227.95L262.126 309.694C264.186 312.934 268.717 313.433 271.432 310.718L285.657 296.493C287.437 294.713 287.917 292.013 286.859 289.729L241.529 191.813C240.471 189.529 240.951 186.829 242.731 185.05L288.126 139.655C302.115 124.932 295.921 109.545 291.075 103.692Z" fill="#00DDFF" stroke="black" stroke-opacity="0.3" stroke-width="20"/>
</svg>
