<svg width="22" height="26" viewBox="0 0 22 26" fill="none" xmlns="http://www.w3.org/2000/svg">
<path d="M12.1718 3.4507C12.0028 1.96338 11.4535 1.19718 11.2 1C10.9461 1.19718 10.3959 1.96338 10.2266 3.4507V11.0141L8.32199 11.0986V9.40845C8.30788 9.1831 8.22042 8.71549 7.9834 8.64789C7.87054 8.70423 7.63635 8.94366 7.60249 9.4507V11.0986L1.16929 11.6479C1.11286 11.7042 1 11.8507 1 11.9859V12.5775L7.60249 13.0423L7.64481 14.0563C7.68714 14.2535 7.80564 14.6732 7.94108 14.7746C8.02573 14.7183 8.21195 14.4958 8.27967 14.0563L8.32199 13.2113L10.2266 13.2958V17.4789C10.2266 18 10.3281 19.8282 10.7344 22.9718L8.32199 23.3521V24.4085H10.9884L11.2 25L11.4113 24.4085H14.0732V23.3521L11.6648 22.9718C12.0704 19.8282 12.1718 18 12.1718 17.4789V13.2958L14.0732 13.2113L14.1155 14.0563C14.1831 14.4958 14.369 14.7183 14.4535 14.7746C14.5887 14.6732 14.707 14.2535 14.7493 14.0563L14.7915 13.0423L21.3831 12.5775V11.9859C21.3831 11.8507 21.2704 11.7042 21.2141 11.6479L14.7915 11.0986V9.4507C14.7577 8.94366 14.5239 8.70423 14.4113 8.64789C14.1746 8.71549 14.0873 9.1831 14.0732 9.40845V11.0986L12.1718 11.0141V3.4507Z" fill="#FFD400" stroke="black" stroke-opacity="0.3" stroke-width="0.5"/>
</svg>
