<svg width="19" height="26" viewBox="0 0 19 26" fill="none" xmlns="http://www.w3.org/2000/svg">
<path d="M10.2033 4.61832C10.1666 3.3542 9.65246 1.67939 9.4 1C9.14754 1.67939 8.63344 3.3542 8.59672 4.61832L6.48525 6.70229V7.45802L8.34426 6.8855L8.29836 7.75573L8.06885 7.93893L7.9541 9.42748C7.94707 9.51167 7.85258 9.73305 7.70164 9.8626V10.229L1.34426 18.313L1.20656 17.3969L1 18.313V20.3511L1.20656 20.9695L1.34426 20.2366L7.54098 20.5573V21.2443L7.88525 21.5191L8.0918 23.3053H9.12459L9.21639 23.0534H9.3082L9.4 25L9.4918 23.0534H9.58361L9.67541 23.3053H10.7082L10.9148 21.5191L11.259 21.2443V20.5573L17.4557 20.2366L17.5934 20.9695L17.8 20.3511V18.313L17.5934 17.3969L17.4557 18.313L11.0984 10.229V9.8626C10.9474 9.73305 10.8529 9.51167 10.8459 9.42748L10.7311 7.93893L10.5016 7.75573L10.4557 6.8855L12.3148 7.45802V6.70229L10.2033 4.61832Z" fill="#FFD400"/>
<path d="M9.4 1C9.65246 1.67939 10.1666 3.3542 10.2033 4.61832L12.3148 6.70229V7.45802L10.4557 6.8855L10.5016 7.75573L10.7311 7.93893L10.8459 9.42748C10.8529 9.51167 10.9474 9.73305 11.0984 9.8626V10.229L17.4557 18.313L17.5934 17.3969L17.8 18.313V20.3511L17.5934 20.9695L17.4557 20.2366L11.259 20.5573V21.2443L10.9148 21.5191L10.7082 23.3053H9.67541L9.58361 23.0534H9.4918L9.4 25M9.4 1C9.14754 1.67939 8.63344 3.3542 8.59672 4.61832L6.48525 6.70229V7.45802L8.34426 6.8855L8.29836 7.75573L8.06885 7.93893L7.9541 9.42748C7.94707 9.51167 7.85258 9.73305 7.70164 9.8626V10.229L1.34426 18.313L1.20656 17.3969L1 18.313V20.3511L1.20656 20.9695L1.34426 20.2366L7.54098 20.5573V21.2443L7.88525 21.5191L8.0918 23.3053H9.12459L9.21639 23.0534H9.3082L9.4 25" stroke="black" stroke-opacity="0.3" stroke-width="0.5"/>
</svg>
