<svg width="17" height="25" viewBox="0 0 17 25" fill="none" xmlns="http://www.w3.org/2000/svg">
<path d="M9.58 3.65318C9.46988 1.98844 9.01412 1.01734 8.8 0.739884C8.58588 1.01734 8.13012 1.98844 8.02 3.65318L7.46941 7.76879C7.24 8.73988 6.76282 10.7283 6.68941 10.9133L6.55176 11.9769L1.32118 16.4162V15.3064C1.21412 15.0135 1 14.3723 1 14.1503V18.5896L1.32118 18.2197L7.05647 18.3121V20.1618L4.39529 22.6127V23.7225L4.71647 24H7.14824V23.7225H7.69882V21.8266L8.38706 24H8.8H9.21294L9.90118 21.8266V23.7225H10.4518V24H12.8835L13.2047 23.7225V22.6127L10.5435 20.1618V18.3121L16.2788 18.2197L16.6 18.5896V14.1503C16.6 14.3723 16.3859 15.0135 16.2788 15.3064V16.4162L11.0482 11.9769L10.9106 10.9133C10.8372 10.7283 10.36 8.73988 10.1306 7.76879L9.58 3.65318Z" fill="#FFD400"/>
<path d="M8.8 0V0.739884M8.8 0.739884C9.01412 1.01734 9.46988 1.98844 9.58 3.65318L10.1306 7.76879C10.36 8.73988 10.8372 10.7283 10.9106 10.9133L11.0482 11.9769L16.2788 16.4162V15.3064C16.3859 15.0135 16.6 14.3723 16.6 14.1503V18.5896L16.2788 18.2197L10.5435 18.3121V20.1619L13.2047 22.6127V23.7225L12.8835 24H10.4518V23.7225H9.90118V21.8266L9.21294 24H8.8H8.38706L7.69882 21.8266V23.7225H7.14824V24H4.71647L4.39529 23.7225V22.6127L7.05647 20.1619V18.3121L1.32118 18.2197L1 18.5896V14.1503C1 14.3723 1.21412 15.0135 1.32118 15.3064V16.4162L6.55176 11.9769L6.68941 10.9133C6.76282 10.7283 7.24 8.73988 7.46941 7.76879L8.02 3.65318C8.13012 1.98844 8.58588 1.01734 8.8 0.739884Z" stroke="black" stroke-opacity="0.3" stroke-width="0.5"/>
</svg>
