<svg width="19" height="26" viewBox="0 0 19 26" fill="none" xmlns="http://www.w3.org/2000/svg">
<path d="M10.1046 3.49262C10.0852 2.24029 9.69346 1.30907 9.5 1C9.30654 1.30907 8.91479 2.24029 8.89545 3.49262L8.8229 5.82869C8.70199 5.94911 8.44566 6.38742 8.38762 7.17735L8.18208 8.59826L7.77098 10.7055L7.56543 12.2469L7.50498 13.2222L6.42888 13.7521L6.35633 13.4631L6.23542 13.8243L4.7724 14.4987V14.1735L4.67568 13.7521L4.57895 14.1735V14.595L1.35064 16.0761L1.31437 15.6787L1.21764 15.5944V15.1128C1.21361 15.0044 1.16444 14.7588 1 14.6432V18.7012C1.04836 18.657 1.15235 18.429 1.18137 17.8703L1.31437 18.6049L7.43243 18.8698L6.91252 20.4352V21.3263L4.71195 23.6744V24.6377C4.74822 24.7661 4.89573 25.0182 5.19559 24.999L8.1579 23.6744L8.10953 23.2529L8.50853 24.2885H9.18563C9.25415 24.0958 9.39844 23.684 9.42745 23.578V24.156L9.37909 24.2885L9.5 24.3005L9.62091 24.2885L9.57255 24.156V23.578C9.60157 23.684 9.74585 24.0958 9.81437 24.2885H10.4915L10.8905 23.2529L10.8421 23.6744L13.8044 24.999C14.1043 25.0182 14.2518 24.7661 14.2881 24.6377V23.6744L12.0875 21.3263V20.4352L11.5676 18.8698L17.6856 18.6049L17.8186 17.8703C17.8477 18.429 17.9516 18.657 18 18.7012V14.6432C17.8356 14.7588 17.7864 15.0044 17.7824 15.1128V15.5944L17.6856 15.6787L17.6494 16.0761L14.4211 14.595V14.1735L14.3243 13.7521L14.2276 14.1735V14.4987L12.7646 13.8243L12.6437 13.4631L12.5711 13.7521L11.495 13.2222L11.4346 12.2469L11.229 10.7055L10.8179 8.59826L10.6124 7.17735C10.5543 6.38742 10.298 5.94911 10.1771 5.82869L10.1046 3.49262Z" fill="#FFD400" stroke="black" stroke-opacity="0.3" stroke-width="0.5"/>
</svg>
