<svg width="18" height="26" viewBox="0 0 18 26" fill="none" xmlns="http://www.w3.org/2000/svg">
<path d="M10.0359 5.38812C9.98486 3.01822 9.32404 1.47525 9 1C8.67596 1.47525 8.01514 3.01822 7.96414 5.38812C7.91633 5.94785 7.79522 7.09901 7.69323 7.22574C7.58699 7.17822 7.36175 6.98178 7.31076 6.57624C7.09296 6.69241 6.59044 7.43802 6.32271 9.49109L5.76494 12.897L1 16.0812V18.9644L5.87649 20.4218L5.63745 20.9287L3.18327 22.6238V23.8911L7.21514 25L7.45418 22.8772L7.70916 22.402L7.98008 23.8911H9H10.0199L10.2908 22.402L10.5458 22.8772L10.7849 25L14.8167 23.8911V22.6238L12.3626 20.9287L12.1235 20.4218L17 18.9644V16.0812L12.2351 12.897L11.6773 9.49109C11.4096 7.43802 10.907 6.69241 10.6892 6.57624C10.6382 6.98178 10.413 7.17822 10.3068 7.22574C10.2048 7.09901 10.0837 5.94785 10.0359 5.38812Z" fill="#FFD400" stroke="black" stroke-opacity="0.3" stroke-width="0.5"/>
</svg>
