<svg width="22" height="26" viewBox="0 0 22 26" fill="none" xmlns="http://www.w3.org/2000/svg">
<path d="M9.82033 5.0288C9.93648 2.18408 10.6552 1.15764 11 1C11.3448 1.15764 12.0635 2.18408 12.1797 5.0288V10.2762L13.7949 11.6222C13.683 11.2948 13.5263 10.5382 13.7949 10.1307H14.7659C14.8355 10.3581 14.9328 10.9747 14.7659 11.6222H14.6025L14.4936 12.2042L20.882 17.3698L21 18.9159L20.7731 18.6158L14.6388 15.6146L12.1797 15.0962V17.6336C12.1555 18.2126 12.0363 19.7107 11.7532 21.0712L14.2214 23.1629V24.3452L11.5808 23.4085L11.5082 23.9269H11.3176L11.1815 24.7454H11.0544L11 25L10.9456 24.7454H10.8185L10.6824 23.9269H10.4918L10.4192 23.4085L7.77858 24.3452V23.1629L10.2468 21.0712C9.9637 19.7107 9.84453 18.2126 9.82033 17.6336V15.0962L7.36116 15.6146L1.22686 18.6158L1 18.9159L1.11797 17.3698L7.50635 12.2042L7.39746 11.6222H7.23412C7.06715 10.9747 7.16455 10.3581 7.23412 10.1307H8.20508C8.47368 10.5382 8.317 11.2948 8.20508 11.6222L9.82033 10.2762V5.0288Z" fill="#FFD400"/>
<path d="M11 1C10.6552 1.15764 9.93648 2.18408 9.82033 5.0288V10.2762L8.20508 11.6222C8.317 11.2948 8.47368 10.5382 8.20508 10.1307H7.23412C7.16455 10.3581 7.06715 10.9747 7.23412 11.6222H7.39746L7.50635 12.2042L1.11797 17.3698L1 18.9159L1.22686 18.6158L7.36116 15.6146L9.82033 15.0962V17.6336C9.84453 18.2126 9.9637 19.7107 10.2468 21.0712L7.77858 23.1629V24.3452L10.4192 23.4085L10.4918 23.9269H10.6824L10.8185 24.7454H10.9456L11 25M11 1C11.3448 1.15764 12.0635 2.18408 12.1797 5.0288V10.2762L13.7949 11.6222C13.683 11.2948 13.5263 10.5382 13.7949 10.1307H14.7659C14.8355 10.3581 14.9328 10.9747 14.7659 11.6222H14.6025L14.4936 12.2042L20.882 17.3698L21 18.9159L20.7731 18.6158L14.6388 15.6146L12.1797 15.0962V17.6336C12.1555 18.2126 12.0363 19.7107 11.7532 21.0712L14.2214 23.1629V24.3452L11.5808 23.4085L11.5082 23.9269H11.3176L11.1815 24.7454H11.0544L11 25" stroke="black" stroke-opacity="0.3" stroke-width="0.5"/>
</svg>
