<svg width="19" height="26" viewBox="0 0 19 26" fill="none" xmlns="http://www.w3.org/2000/svg">
<path d="M10.6879 3.47534C10.6879 2.03318 10.096 1.22422 9.8 1C9.50324 1.22422 8.90973 2.03318 8.90973 3.47534V11.7892L1.22107 15.7982C1.11315 15.8879 0.92431 16.1856 1.03222 16.6592L1.302 16.4978L7.02129 15.0448H8.80182V17.6547L8.69391 17.5471C8.54104 17.4484 8.14356 17.3103 7.77667 17.5471C7.72271 18.0583 7.69034 19.409 7.99249 20.722H8.66693L9.09858 21.0718L9.34138 22.3094L6.58964 24.1928C6.5267 24.2556 6.3954 24.4135 6.37382 24.5426V25H6.53569L9.50324 24.139L9.8 24.3812L10.096 24.139L13.0556 25H13.217V24.5426C13.1955 24.4135 13.0646 24.2556 13.0018 24.1928L10.2574 22.3094L10.4996 21.0718L10.93 20.722H11.6027C11.904 19.409 11.8717 18.0583 11.8179 17.5471C11.452 17.3103 11.0556 17.4484 10.9031 17.5471L10.7955 17.6547V15.0448H12.5713L18.2753 16.4978L18.5444 16.6592C18.652 16.1856 18.4637 15.8879 18.3561 15.7982L10.6879 11.7892V3.47534Z" fill="#FFD400" stroke="black" stroke-opacity="0.3" stroke-width="0.5"/>
</svg>
